#!OML:ASF E:\Steps\Project 1\Capture day 1\Session 2\Subject.ASF
:FULLY-SPECIFIED
:DEGREES
301
root 12.3201 13.5457 10.1327 16.8378 -143.592 365.453
lowerback -19.2844 -5.47577 -9.73057
upperback -1.03359 -5.26604 -2.04715
thorax 10.3491 -3.03665 1.71364
lowerneck -0.26484 0.990313 -4.48283
upperneck 8.97298 0.67308 6.42554
head 2.91026 0.262037 2.92532
rclavicle 6.54002e-014 -4.77083e-014
rhumerus -35.3019 22.9173 -96.1649
rradius 89.5537
rwrist -20.439
rhand 4.06787 -44.0613
rfingers 7.12502
rthumb 29.4805 -71.7414
lclavicle 6.54002e-014 -4.77083e-014
lhumerus -39.7393 -43.3696 96.2181
lradius 88.498
lwrist 2.93678
lhand -27.6122 -33.5432
lfingers 7.12502
lthumb -1.01141 -3.5658
rfemur -52.0727 -4.42536 34.6028
rtibia 73.0363
rfoot -49.9603 -26.1203
rtoes -22.7675
lfemur -51.9378 -14.2154 -7.46861
ltibia 80.8468
lfoot 145.932 171.591
ltoes -55.7559
302
root 12.3446 13.4914 10.2278 16.9883 -140.588 366.024
lowerback -18.3007 -5.2154 -8.89185
upperback -0.891344 -5.15993 -2.36852
thorax 9.84492 -2.92741 1.00892
lowerneck -0.0285203 0.967275 -4.34605
upperneck 8.97101 0.632491 6.39994
head 2.86733 0.242404 2.88648
rclavicle 6.40087e-014 -1.43125e-013
rhumerus -34.463 22.3081 -95.2246
rradius 90.2321
rwrist -21.9719
rhand 3.85539 -44.087
rfingers 7.12502
rthumb 29.2776 -71.8026
lclavicle 6.40087e-014 -1.43125e-013
lhumerus -38.8877 -45.1281 97.7601
lradius 88.4683
lwrist 2.19823
lhand -27.8925 -33.3985
lfingers 7.12502
lthumb -1.28212 -3.42265
rfemur -53.9924 -4.24652 35.0364
rtibia 74.4631
rfoot -50.063 -28.0431
rtoes -22.4639
lfemur -52.7596 -15.3144 -6.76676
ltibia 78.9529
lfoot 140.123 184.078
ltoes -43.2279
303
root 12.3578 13.4846 10.3296 16.373 -137.622 366.313
lowerback -16.3412 -5.08436 -8.08481
upperback -0.427365 -5.26662 -2.61974
thorax 9.18093 -2.92008 0.406344
lowerneck -0.0311408 1.00702 -4.48491
upperneck 9.02195 0.695603 6.38712
head 2.88169 0.271907 2.9106
rclavicle -4.13472e-014 -2.22639e-014
rhumerus -33.5972 22.2333 -94.2803
rradius 90.89
rwrist -24.0115
rhand -4.80846 -38.2925
rfingers 7.12502
rthumb 20.9774 -67.1781
lclavicle -4.13472e-014 -2.22639e-014
lhumerus -37.7978 -46.3492 99.0266
lradius 88.403
lwrist 1.50063
lhand -28.4801 -33.1497
lfingers 7.12502
lthumb -1.84962 -3.17799
rfemur -54.6527 -4.72436 34.8647
rtibia 75.3482
rfoot -49.8983 -29.8187
rtoes -22.6055
lfemur -52.6994 -16.9891 -6.60678
ltibia 78.5039
lfoot 138.753 183.162
ltoes -37.3173
304
root 12.3776 13.4677 10.422 16.7951 -136.202 366.241
lowerback -15.4681 -4.67037 -7.66185
upperback -0.260597 -4.84458 -2.84628
thorax 8.78545 -2.68902 0.103263
lowerneck -0.0287223 1.11044 -4.98765
upperneck 9.08366 0.848633 6.46022
head 2.89452 0.336443 3.03499
rclavicle 1.78111e-013 7.95139e-014
rhumerus -32.6668 22.2407 -93.1883
rradius 91.153
rwrist -25.0939
rhand -0.417423 -41.999
rfingers 7.12502
rthumb 25.1905 -70.3566
lclavicle 1.78111e-013 7.95139e-014
lhumerus -36.8486 -47.3398 100.325
lradius 88.254
lwrist 1.07474
lhand -29.0466 -32.8854
lfingers 7.12502
lthumb -2.3967 -2.91913
rfemur -55.7302 -3.5444 34.2381
rtibia 75.7036
rfoot -49.4225 -30.8815
rtoes -22.7088
lfemur -54.1004 -17.4123 -6.50941
ltibia 79.1351
lfoot 138.362 184.488
ltoes -40.2879
305
root 12.3949 13.4626 10.5011 16.8403 -135.017 366.227
lowerback -14.4465 -4.11493 -7.28952
upperback -0.0978711 -4.23265 -3.15164
thorax 8.29481 -2.36734 -0.21082
lowerneck 0.166587 1.13494 -4.9094
upperneck 9.14648 0.874434 6.37253
head 2.87706 0.346 2.98853
rclavicle -4.53229e-014 -2.54444e-014
rhumerus -31.8293 21.9108 -92.2353
rradius 91.088
rwrist -25.4668
rhand -1.84234 -39.9381
rfingers 7.12502
rthumb 23.8246 -68.4808
lclavicle -4.53229e-014 -2.54444e-014
lhumerus -36.3704 -48.4454 101.663
lradius 88.1755
lwrist 1.23099
lhand -29.3893 -33.0538
lfingers 7.12502
lthumb -2.72772 -3.09153
rfemur -56.4581 -2.45851 33.5915
rtibia 76.134
rfoot -49.3063 -31.5014
rtoes -22.6857
lfemur -55.4743 -17.8477 -6.32296
ltibia 79.7304
lfoot 139.51 186.912
ltoes -46.8
306
root 12.4068 13.4675 10.5786 16.7541 -133.961 366.383
lowerback -13.5236 -3.56872 -6.79629
upperback -0.00397339 -3.64537 -3.39326
thorax 7.7936 -2.05229 -0.548843
lowerneck 0.467241 1.09089 -4.81119
upperneck 9.24985 0.796551 6.28446
head 2.86051 0.301039 2.93553
rclavicle 7.15625e-014 -1.145e-013
rhumerus -31.0158 21.8823 -91.4114
rradius 90.8109
rwrist -26.1827
rhand 5.88652 -44.7411
rfingers 7.12502
rthumb 31.2152 -72.1013
lclavicle 7.15625e-014 -1.145e-013
lhumerus -36.245 -49.2793 103.101
lradius 88.0934
lwrist 1.13831
lhand -30.2722 -33.4641
lfingers 7.12502
lthumb -3.58035 -3.51447
rfemur -56.5016 -1.44067 33.0557
rtibia 75.5238
rfoot -49.0624 -31.7994
rtoes -21.9752
lfemur -57.0979 -18.0085 -6.1689
ltibia 80.671
lfoot 141.011 187.742
ltoes -49.7139
